#!OML:ASF I:\salsa\salsa 7_09\Patient 1\Session 1\dancermale.ASF
:FULLY-SPECIFIED
:DEGREES
2566
root 4.89971 16.8175 -0.0711729 -2509.88 204.922 1078.94
lowerback 174.175 -178.767 -171.871
upperback -1.47015 -2.38556 2.89388
thorax 1.54804 -1.25645 -1.72341
lowerneck -6.02289 9.65731 6.20093
upperneck 31.8845 12.4711 -6.49164
head 12.3529 4.70605 -2.13215
rclavicle -1.26228e-014 2.06736e-014
rhumerus -238.166 162.871 -262.585
rradius 61.3737
rwrist 22.5223
rhand -2.70386 11.6015
rfingers 7.12502
rthumb 22.9982 -17.0465
lclavicle -1.26228e-014 2.06736e-014
lhumerus 210.762 -82.1468 -167.537
lradius 80.5281
lwrist -19.673
lhand 8.66021 63.6982
lfingers 7.12502
lthumb 33.8545 -2250.51
rfemur -27.7068 0.982007 19.1704
rtibia 41.3419
rfoot -24.6415 -0.688964
rtoes -9.14005
lfemur -25.8435 -1.88875 7.06117
ltibia 35.4391
lfoot -4.07432 0.985194
ltoes 12.8047
2567
root 4.66085 16.8549 -0.117757 -2509.53 201.172 1078.02
lowerback 174.371 -179.214 -171.96
upperback -1.24948 -1.73214 2.34432
thorax 1.70867 -0.90559 -2.19946
lowerneck -5.82535 10.2191 6.40771
upperneck 31.8881 13.1929 -6.36331
head 12.383 5.06471 -2.02369
rclavicle -3.43897e-014 -1.59028e-014
rhumerus -240.534 160.138 -265.688
rradius 61.4142
rwrist 22.8579
rhand -0.805121 11.5386
rfingers 7.12502
rthumb 24.819 -16.8707
lclavicle -3.43897e-014 -1.59028e-014
lhumerus 220.103 -79.059 -178.126
lradius 78.8996
lwrist -21.2448
lhand 12.2319 63.2665
lfingers 7.12502
lthumb 37.24 -2070.73
rfemur -27.7792 1.5435 17.1805
rtibia 41.3986
rfoot -24.5204 0.326308
rtoes -9.12734
lfemur -22.9699 -6.36952 7.64405
ltibia 30.1328
lfoot -0.327507 0.298375
ltoes 7.31398
2568
root 4.43014 16.8882 -0.146006 -2508.78 197.161 1077.17
lowerback 174.455 -179.711 -172.124
upperback -1.23988 -1.01842 1.81675
thorax 1.73139 -0.539542 -2.60679
lowerneck -5.73747 10.8158 6.54658
upperneck 32.0145 13.936 -6.11102
head 12.4722 5.42958 -1.8493
rclavicle 5.18828e-014 6.83819e-014
rhumerus -242.745 158.101 -268.347
rradius 61.4764
rwrist 24.516
rhand 2.10548 13.2519
rfingers 7.12502
rthumb 27.6055 -14.7432
lclavicle 5.18828e-014 6.83819e-014
lhumerus 225.058 -75.6527 -184.39
lradius 77.3333
lwrist -22.526
lhand 12.1432 62.9531
lfingers 7.12502
lthumb 37.1562 -2071.02
rfemur -28.8394 1.91315 15.2989
rtibia 41.8718
rfoot -24.3176 1.6141
rtoes -7.90054
lfemur -20.7324 -10.3053 7.65047
ltibia 26.583
lfoot 1.46291 -0.211206
ltoes 3.77367
2569
root 4.1963 16.9116 -0.165228 -2507.82 192.833 1076.37
lowerback 174.601 -180.259 -172.443
upperback -1.49533 -0.223776 1.34512
thorax 1.46411 -0.1565 -2.86278
lowerneck -5.4236 11.4674 6.78243
upperneck 32.1589 14.7675 -5.9909
head 12.5515 5.82494 -1.73921
rclavicle -1.33186e-014 -2.06736e-014
rhumerus -245.511 156.129 -271.529
rradius 61.8981
rwrist 24.9713
rhand 4.77301 13.8183
rfingers 7.12502
rthumb 30.1534 -13.7411
lclavicle -1.33186e-014 -2.06736e-014
lhumerus 228.181 -71.9672 -188.68
lradius 76.0253
lwrist -24.2794
lhand 14.8714 63.298
lfingers 7.12502
lthumb 39.7306 -2071.4
rfemur -30.6924 2.01118 13.4588
rtibia 42.7944
rfoot -23.933 3.20549
rtoes -5.32325
lfemur -18.9796 -11.6883 6.42354
ltibia 25.9549
lfoot 0.560732 -1.01818
ltoes -13.7699
2570
root 3.95242 16.9217 -0.193753 -2506.93 188.154 1075.53
lowerback 174.618 -180.902 -172.901
upperback -1.68086 0.683771 0.845453
thorax 1.35818 0.290287 -3.06495
lowerneck -5.04133 12.0928 7.19018
upperneck 32.0967 15.6292 -6.14043
head 12.5794 6.23932 -1.7525
rclavicle -8.54774e-015 -3.65764e-014
rhumerus -248.186 154.711 -274.619
rradius 62.4643
rwrist 24.6867
rhand 7.86291 13.8263
rfingers 7.12502
rthumb 33.0967 -13.1535
lclavicle -8.54774e-015 -3.65764e-014
lhumerus 229.676 -68.3479 -191.263
lradius 74.8595
lwrist -25.5063
lhand 13.7819 62.1821
lfingers 7.12502
lthumb 38.7039 -2072.21
rfemur -33.0244 1.21037 11.9759
rtibia 44.178
rfoot -23.4058 3.97513
rtoes -2.3137
lfemur -17.333 -11.0801 4.1283
ltibia 27.2184
lfoot -0.405542 0.741546
ltoes -24.9623
